<?xml version="1.0" encoding="UTF-8"?>
<svg xmlns="http://www.w3.org/2000/svg" xmlns:xlink="http://www.w3.org/1999/xlink" width="800px" height="534px" viewBox="0 0 800 534" version="1.1">
<g id="surface1">
<path style=" stroke:none;fill-rule:nonzero;fill:rgb(100%,100%,100%);fill-opacity:1;" d="M 324.265625 174.617188 C 318.667969 177.554688 313.066406 182.894531 311.734375 186.097656 C 309.867188 191.171875 293.867188 205.589844 289.867188 205.589844 C 288.800781 205.589844 282.132812 209.328125 274.933594 213.601562 C 266.132812 219.207031 257.601562 222.144531 249.867188 222.410156 C 240.800781 222.679688 238.398438 223.746094 240.535156 226.148438 C 243.464844 229.886719 241.066406 234.960938 236.265625 234.960938 C 231.199219 234.960938 224 244.039062 224 250.445312 C 224 253.648438 224.535156 256.320312 225.332031 256.320312 C 226.132812 256.320312 233.867188 250.980469 242.398438 244.570312 C 257.066406 233.890625 257.867188 232.824219 253.867188 228.550781 C 249.867188 224.546875 250.398438 224.28125 261.066406 224.28125 C 270.933594 224.28125 276 221.878906 295.734375 207.992188 C 319.199219 191.707031 317.601562 193.574219 285.867188 222.410156 C 278.933594 228.550781 273.867188 236.027344 272.800781 240.835938 C 271.199219 248.578125 270.933594 248.84375 267.734375 244.304688 C 264.265625 239.765625 262.933594 240.300781 248.800781 252.847656 C 240.265625 260.058594 228.535156 272.875 222.667969 281.417969 C 213.066406 295.300781 212 298.238281 212 313.726562 C 212 326.539062 213.066406 331.882812 217.066406 336.152344 C 224.800781 344.695312 220.535156 345.496094 210.933594 337.488281 C 188.800781 319.066406 189.332031 296.371094 212.265625 269.9375 C 220 260.859375 222.398438 256.320312 221.601562 250.179688 C 221.066406 245.371094 222.933594 240.300781 226.132812 236.828125 C 229.066406 233.625 232.265625 228.285156 233.332031 224.8125 C 234.933594 219.472656 234.132812 218.941406 225.601562 218.941406 C 218.667969 218.941406 214.398438 217.070312 210.398438 212.53125 C 205.066406 206.390625 204.535156 206.390625 199.734375 210.394531 C 193.601562 215.734375 193.066406 225.882812 198.667969 231.222656 C 203.199219 236.027344 204.535156 276.34375 200 279.015625 C 197.601562 280.617188 196 261.125 197.332031 242.703125 C 197.601562 237.363281 194.667969 233.089844 185.601562 225.082031 C 175.734375 216.535156 174.132812 213.601562 176.800781 211.195312 C 180.800781 207.992188 186.667969 211.996094 186.667969 218.140625 C 186.667969 220.007812 188 221.609375 189.332031 221.609375 C 193.332031 221.609375 192.535156 217.339844 187.199219 208.261719 L 182.132812 200.25 L 176.800781 206.390625 C 173.867188 209.59375 170.667969 216.269531 169.601562 221.074219 C 167.734375 231.488281 170.132812 243.503906 173.601562 241.367188 C 174.933594 240.566406 180.265625 244.570312 185.332031 250.179688 C 193.867188 259.523438 194.667969 261.660156 194.667969 276.878906 C 194.667969 285.957031 193.601562 294.234375 192 295.035156 C 190.398438 296.101562 189.332031 290.230469 189.332031 279.550781 C 189.332031 260.59375 185.332031 253.917969 177.066406 258.457031 C 172.800781 260.859375 173.066406 261.125 178.132812 262.726562 C 181.332031 263.796875 184 265.398438 184 266.464844 C 184.265625 276.078125 190.132812 318.265625 192.265625 324.9375 C 195.464844 335.085938 211.199219 349.769531 218.933594 349.769531 C 221.867188 349.769531 227.464844 351.90625 231.199219 354.308594 C 236.535156 358.046875 244 359.113281 260 359.113281 C 278.398438 359.113281 283.199219 358.046875 293.867188 351.640625 C 308.800781 342.828125 323.199219 326.808594 328 313.191406 C 329.867188 307.316406 332 285.15625 332.535156 259.257812 C 333.867188 218.671875 334.398438 214.933594 340.265625 206.390625 C 344.800781 199.449219 346.667969 193.039062 346.667969 183.964844 C 346.667969 176.753906 346.132812 170.878906 345.601562 170.878906 C 344.800781 170.878906 342.933594 178.355469 341.066406 187.167969 C 338.132812 201.851562 337.332031 203.1875 334.398438 198.914062 C 332.265625 196.246094 329.867188 194.910156 328.800781 195.976562 C 327.464844 197.046875 326.132812 222.144531 325.332031 251.78125 C 323.734375 312.65625 321.601562 320.132812 302.132812 336.152344 C 289.066406 346.832031 275.199219 350.570312 252.800781 349.234375 C 238.398438 348.433594 233.601562 347.101562 228.265625 342.027344 C 219.464844 333.75 214.933594 319.867188 217.332031 307.851562 C 220.800781 288.894531 229.332031 277.945312 229.332031 292.632812 C 229.332031 296.902344 232.800781 303.046875 238.398438 308.652344 C 249.066406 319.332031 262.933594 320.933594 276.535156 312.390625 C 287.734375 305.714844 290.667969 294.5 290.667969 256.054688 L 290.667969 225.082031 L 308.535156 207.191406 L 326.667969 189.035156 L 320 185.566406 L 313.332031 182.09375 L 320.800781 179.15625 C 324.800781 177.554688 331.199219 175.417969 334.667969 174.617188 C 338.398438 173.816406 341.332031 171.949219 341.332031 170.613281 C 341.332031 166.875 335.734375 168.210938 324.265625 174.617188 Z M 212.265625 219.207031 C 213.066406 220.808594 212.535156 223.480469 210.933594 225.082031 C 209.332031 226.683594 208 237.628906 207.734375 249.378906 C 207.464844 276.613281 206.132812 272.875 204.535156 240.835938 C 203.734375 221.609375 204 216.269531 206.933594 216.269531 C 208.800781 216.269531 211.199219 217.605469 212.265625 219.207031 Z M 186.398438 235.226562 C 196 246.976562 196.265625 253.117188 186.398438 241.902344 C 183.199219 238.164062 178.933594 234.960938 177.066406 234.960938 C 172.800781 234.960938 169.867188 230.421875 172 226.949219 C 174.667969 222.679688 176.800781 223.746094 186.398438 235.226562 Z M 228.800781 229.085938 C 229.332031 230.953125 227.464844 233.359375 224.265625 234.160156 C 218.667969 235.492188 217.066406 239.230469 215.199219 254.984375 C 214.398438 261.660156 214.132812 261.125 213.601562 252.582031 C 213.332031 238.964844 218.667969 223.746094 223.734375 224.8125 C 225.867188 225.347656 228 227.21875 228.800781 229.085938 Z M 283.199219 246.175781 C 283.734375 248.042969 283.734375 260.058594 282.933594 272.605469 C 281.601562 292.363281 280.265625 296.636719 274.667969 302.511719 C 267.464844 310.253906 252.800781 312.121094 245.066406 306.25 C 237.601562 300.375 231.464844 288.894531 233.332031 283.554688 C 234.132812 280.617188 240.800781 272.875 247.734375 266.199219 C 257.332031 257.121094 262.132812 254.449219 266.398438 255.519531 C 270.398438 256.585938 272.535156 255.253906 274.933594 249.910156 C 278.398438 242.4375 281.332031 241.101562 283.199219 246.175781 Z M 283.199219 246.175781 "/>
<path style=" stroke:none;fill-rule:nonzero;fill:rgb(100%,100%,100%);fill-opacity:1;" d="M 357.867188 240.835938 C 352.800781 245.90625 353.601562 293.699219 358.933594 301.175781 C 363.464844 307.851562 367.199219 306.78125 370.667969 297.703125 C 372.265625 293.699219 376.535156 290.761719 384.800781 288.894531 C 392.535156 286.757812 398.132812 283.285156 401.066406 279.015625 C 407.199219 269.9375 410.667969 272.875 410.667969 287.023438 C 410.667969 302.777344 415.464844 307.050781 433.332031 307.050781 C 445.066406 307.050781 448.535156 305.980469 452 300.910156 L 456.265625 295.035156 L 460.800781 301.175781 C 465.066406 306.515625 465.867188 306.78125 470.667969 303.3125 C 475.199219 300.109375 476 295.835938 476.535156 272.875 C 477.066406 249.378906 476.535156 245.640625 472 241.636719 C 466.933594 237.097656 466.398438 237.097656 461.332031 241.636719 C 456.800781 245.640625 456 249.910156 456 267 L 456 287.558594 L 448.800781 286.492188 C 428.265625 283.285156 429.332031 284.621094 429.332031 264.597656 C 429.332031 249.644531 428.265625 245.640625 423.734375 241.367188 C 418.132812 236.296875 418.132812 236.5625 413.066406 242.4375 L 408 248.84375 L 398.933594 243.238281 C 388.800781 236.828125 363.199219 235.492188 357.867188 240.835938 Z M 397.601562 250.714844 C 404.535156 258.988281 404 265.933594 396 273.675781 C 391.199219 278.480469 386.667969 280.351562 378.667969 280.351562 C 368.535156 280.351562 368 280.882812 368 288.359375 C 368 293.699219 366.667969 296.371094 364 296.371094 C 360.800781 296.371094 360 291.5625 360 269.402344 L 360 242.4375 L 376.265625 243.503906 C 389.332031 244.570312 393.867188 245.90625 397.601562 250.714844 Z M 423.464844 267 L 422.667969 291.03125 L 438.132812 291.03125 C 448 291.03125 453.332031 292.097656 452.800781 293.96875 C 452.265625 295.570312 450.933594 296.636719 449.867188 296.636719 C 448.800781 296.371094 440.800781 296.371094 432 296.371094 L 416 296.371094 L 416 269.671875 C 416 247.242188 416.535156 242.96875 420.265625 242.96875 C 423.734375 242.96875 424.265625 246.441406 423.464844 267 Z M 469.867188 270.738281 C 469.066406 293.699219 468.265625 298.507812 465.066406 297.171875 C 462.132812 296.101562 461.332031 289.960938 461.332031 269.402344 C 461.332031 245.90625 461.867188 242.96875 466.132812 242.96875 C 470.132812 242.96875 470.667969 245.640625 469.867188 270.738281 Z M 469.867188 270.738281 "/>
<path style=" stroke:none;fill-rule:nonzero;fill:rgb(100%,100%,100%);fill-opacity:1;" d="M 368 262.460938 L 368 273.941406 L 378.933594 272.605469 C 400 269.671875 400 253.117188 378.933594 251.515625 L 368 250.714844 Z M 368 262.460938 "/>
<path style=" stroke:none;fill-rule:nonzero;fill:rgb(100%,100%,100%);fill-opacity:1;" d="M 487.464844 240.566406 C 480.265625 244.570312 480.535156 293.164062 487.464844 301.710938 C 492 307.316406 492.535156 307.316406 496.800781 303.046875 C 499.199219 300.640625 501.332031 296.371094 501.332031 293.699219 C 501.332031 288.09375 508.800781 283.019531 517.066406 283.019531 C 520 283.019531 523.734375 280.617188 525.332031 277.414062 C 529.332031 270.472656 524.535156 264.328125 514.933594 264.0625 C 509.066406 264.0625 509.601562 263.261719 518.933594 260.058594 C 526.933594 257.121094 531.734375 256.855469 536.800781 258.722656 C 543.734375 261.394531 544 262.460938 544 280.082031 C 544 293.96875 545.066406 299.839844 548.535156 303.046875 C 552.800781 307.316406 553.332031 307.316406 557.867188 301.710938 C 561.332031 297.4375 562.667969 291.296875 562.667969 278.746094 C 562.667969 262.996094 563.199219 261.394531 569.066406 258.988281 C 576.800781 256.054688 580.265625 246.976562 576 241.636719 C 573.601562 238.699219 564.265625 237.898438 532.535156 237.898438 C 510.132812 237.898438 489.867188 239.230469 487.464844 240.566406 Z M 525.332031 246.976562 C 525.332031 250.179688 521.867188 250.980469 510.667969 250.980469 L 496 250.980469 L 496 268.867188 L 509.332031 267.535156 C 520.265625 266.464844 522.667969 267 522.667969 270.738281 C 522.667969 274.210938 520 275.011719 509.332031 275.011719 L 496 275.011719 L 496 285.691406 C 496 293.433594 494.933594 296.371094 492 296.371094 C 488.800781 296.371094 488 291.5625 488 269.671875 L 488 242.96875 L 506.667969 242.96875 C 521.601562 242.96875 525.332031 243.769531 525.332031 246.976562 Z M 576 246.976562 C 576 249.644531 573.066406 250.980469 566.667969 250.980469 L 557.332031 250.980469 L 557.332031 273.40625 C 557.332031 290.761719 556.535156 296.101562 553.332031 297.4375 C 549.867188 298.507812 549.332031 295.035156 549.332031 275.011719 L 549.332031 250.980469 L 540 250.980469 C 533.601562 250.980469 530.667969 249.644531 530.667969 246.976562 C 530.667969 243.769531 534.933594 242.96875 553.332031 242.96875 C 571.734375 242.96875 576 243.769531 576 246.976562 Z M 576 246.976562 "/>
<path style=" stroke:none;fill-rule:nonzero;fill:rgb(100%,100%,100%);fill-opacity:1;" d="M 593.066406 242.4375 C 587.199219 249.644531 570.667969 285.957031 570.667969 292.632812 C 570.667969 295.570312 572.265625 300.109375 574.132812 302.777344 C 577.601562 307.585938 578.132812 307.316406 585.867188 299.839844 C 595.464844 290.230469 605.066406 290.230469 614.933594 299.039062 C 618.933594 303.046875 622.667969 304.378906 625.867188 303.046875 C 630.132812 301.441406 630.132812 300.910156 624.800781 298.773438 C 621.601562 297.703125 618.132812 293.433594 617.066406 289.695312 C 615.464844 283.554688 614.132812 283.019531 601.066406 283.019531 C 588.265625 283.019531 586.132812 283.820312 584 289.429688 C 581.601562 296.101562 576.535156 300.640625 574.398438 298.238281 C 572.265625 296.101562 597.066406 244.304688 600.800781 243.503906 C 603.199219 242.96875 608.535156 252.046875 616 269.671875 C 622.132812 284.355469 628.800781 296.101562 630.398438 295.570312 C 632 295.035156 635.734375 297.703125 638.398438 301.175781 L 643.734375 307.851562 L 648.535156 301.710938 C 655.199219 293.699219 655.734375 248.308594 649.066406 241.902344 C 639.199219 232.023438 632.265625 245.640625 631.734375 276.34375 C 631.734375 283.554688 630.933594 287.824219 630.132812 285.691406 C 626.933594 276.34375 612 246.707031 608.535156 242.167969 C 603.464844 236.296875 598.398438 236.296875 593.066406 242.4375 Z M 648 269.402344 C 648 290.496094 647.199219 296.101562 644 297.4375 C 640.535156 298.773438 640 294.769531 640 271.003906 C 640 247.777344 640.800781 242.96875 644 242.96875 C 647.199219 242.96875 648 247.777344 648 269.402344 Z M 648 269.402344 "/>
<path style=" stroke:none;fill-rule:nonzero;fill:rgb(100%,100%,100%);fill-opacity:1;" d="M 594.933594 264.328125 L 589.601562 276.34375 L 598.933594 277.144531 C 604.265625 277.679688 609.066406 277.414062 609.601562 276.878906 C 610.398438 276.34375 608.535156 270.472656 605.601562 264.0625 L 600.535156 252.316406 Z M 594.933594 264.328125 "/>
<path style=" stroke:none;fill-rule:nonzero;fill:rgb(100%,100%,100%);fill-opacity:1;" d="M 232 395.160156 C 216.535156 397.5625 231.199219 399.964844 261.066406 399.964844 C 290.933594 399.964844 304.800781 395.425781 277.332031 394.625 C 245.332031 393.824219 241.332031 393.824219 232 395.160156 Z M 232 395.160156 "/>
</g>
</svg>
